<?xml version="1.0" encoding="iso-8859-1"?>
<!-- Generator: Adobe Illustrator 19.0.0, SVG Export Plug-In . SVG Version: 6.00 Build 0)  -->
<svg version="1.1" id="Capa_1" xmlns="http://www.w3.org/2000/svg" xmlns:xlink="http://www.w3.org/1999/xlink" x="0px" y="0px"
	 viewBox="0 0 512 512" style="enable-background:new 0 0 512 512;" xml:space="preserve">
<circle style="fill:#DF871E;" cx="255.997" cy="255.997" r="255.997"/>
<path style="fill:#C27526;" d="M241.888,511.607c4.672,0.254,9.377,0.392,14.112,0.392C397.385,512,512,397.384,512,256
	c0-1.97-0.031-3.933-0.074-5.892l-97.887-97.887c-9.223-10.625-34.205-33.142-78.746-30.684
	c-49.06,2.706-69.247,42.001-74.329,54.129l-30.985-30.985l-0.007,0.007c-11.804-11.524-29.002-21.812-53.263-23.151
	c-58.068-3.204-82.896,36.041-82.896,36.041v203.08c0,2.111,0.954,4.021,2.476,5.302l-0.023,0.023L241.888,511.607z"/>
<g>
	<path style="fill:#FFFFFF;" d="M176.707,121.537c-58.068-3.204-82.896,36.041-82.896,36.041v203.08
		c0,3.428,2.505,6.342,5.895,6.855l0.084,0.013c2.125,0.322,4.277-0.361,5.831-1.844c16.756-15.999,39.326-25.939,63.878-25.939
		c35.595,0,67.026,20.878,82.593,50.858l0.302,0.046V179.204C252.395,179.204,234.775,124.74,176.707,121.537z"/>
	<path style="fill:#FFFFFF;" d="M335.292,121.537c58.068-3.204,82.896,36.041,82.896,36.041v203.08c0,3.429-2.505,6.342-5.895,6.857
		l-0.084,0.013l-0.024,0.004c-2.11,0.32-4.248-0.359-5.792-1.832c-16.758-16.008-39.333-25.953-63.894-25.953
		c-35.595,0-67.026,20.878-82.593,50.858l-0.302,0.046V179.204C259.604,179.204,277.224,124.74,335.292,121.537z"/>
</g>
<g>
</g>
<g>
</g>
<g>
</g>
<g>
</g>
<g>
</g>
<g>
</g>
<g>
</g>
<g>
</g>
<g>
</g>
<g>
</g>
<g>
</g>
<g>
</g>
<g>
</g>
<g>
</g>
<g>
</g>
</svg>
