<?xml version="1.0" encoding="iso-8859-1"?>
<!-- Generator: Adobe Illustrator 16.0.0, SVG Export Plug-In . SVG Version: 6.00 Build 0)  -->
<!DOCTYPE svg PUBLIC "-//W3C//DTD SVG 1.1//EN" "http://www.w3.org/Graphics/SVG/1.1/DTD/svg11.dtd">
<svg version="1.1" id="Capa_1" xmlns="http://www.w3.org/2000/svg" xmlns:xlink="http://www.w3.org/1999/xlink" x="0px" y="0px"
	 width="315.409px" height="315.409px" viewBox="0 0 315.409 315.409" style="enable-background:new 0 0 315.409 315.409;"
	 xml:space="preserve">
<g>
	<g>
		<path d="M124.347,238.612c0-51.179,41.633-92.812,92.81-92.812c3.791,0,7.509,0.298,11.18,0.741v-88.75v-0.005v-0.005V52.31
			h-5.959l0.005,0.077H49.805c-11.451,0-16.804-9.521-17.273-19.388c-0.021-0.469-0.092-0.933-0.092-1.408
			c0-10.347,5.369-20.791,17.366-20.791h167.732c0.2,0,0.358-0.092,0.548-0.108c2.711-0.288,4.852-2.5,4.852-5.292
			c0-2.985-2.415-5.4-5.399-5.4H49.805C33.486,0,21.639,13.289,21.639,31.596c0,0.535,0.042,1.052,0.066,1.582v253.128
			c0,16.073,13.028,29.104,29.104,29.104h114.296C140.531,298.688,124.347,270.512,124.347,238.612z"/>
		<path d="M228.337,162.912c-3.66-0.543-7.367-0.912-11.18-0.912c-42.246,0-76.615,34.367-76.615,76.612
			c0,42.251,34.364,76.618,76.615,76.618c3.808,0,7.52-0.375,11.18-0.912c36.956-5.442,65.433-37.263,65.433-75.706
			C293.77,200.18,265.293,168.35,228.337,162.912z M257.915,278.047c-1.84,1.836-4.255,2.753-6.671,2.753
			c-2.426,0-4.846-0.928-6.697-2.784l-16.21-16.279l-5.1-5.12c-4.988,2.489-10.595,3.934-16.543,3.934
			c-20.472,0-37.125-16.653-37.125-37.125s16.653-37.125,37.125-37.125c8.079,0,15.546,2.626,21.643,7.024
			c9.365,6.744,15.482,17.708,15.482,30.101c0,7.668-2.336,14.798-6.328,20.714l20.45,20.546
			C261.623,268.381,261.612,274.366,257.915,278.047z"/>
		<path d="M206.694,205.2c10.067,0,18.226,8.163,18.226,18.225s-8.158,18.226-18.226,18.226c-10.062,0-18.225-8.164-18.225-18.226
			S196.633,205.2,206.694,205.2z"/>
	</g>
</g>
<g>
</g>
<g>
</g>
<g>
</g>
<g>
</g>
<g>
</g>
<g>
</g>
<g>
</g>
<g>
</g>
<g>
</g>
<g>
</g>
<g>
</g>
<g>
</g>
<g>
</g>
<g>
</g>
<g>
</g>
</svg>
