<svg height="464pt" viewBox="-40 0 464 464.00155" width="464pt" xmlns="http://www.w3.org/2000/svg"><path d="m.328125 410.566406c-.078125.730469-.121094 1.472656-.167969 2.21875.046875-.746094.089844-1.488281.167969-2.21875zm0 0" fill="#bddbff"/><path d="m3.898438 397.039062c-.265626.617188-.480469 1.257813-.722657 1.882813.242188-.625.457031-1.265625.722657-1.882813zm0 0" fill="#bddbff"/><path d="m11.015625 385.425781c-.3125.375-.589844.796875-.894531 1.183594.28125-.394531.582031-.808594.894531-1.183594zm0 0" fill="#bddbff"/><path d="m8.289062 389.046875c-.34375.496094-.632812 1.015625-.953124 1.527344.320312-.511719.609374-1.039063.953124-1.527344zm0 0" fill="#bddbff"/><path d="m2.28125 401.375c-.214844.65625-.375 1.335938-.550781 2.015625.175781-.671875.335937-1.359375.550781-2.015625zm0 0" fill="#bddbff"/><path d="m1.082031 405.878906c-.144531.707032-.25 1.425782-.371093 2.136719.089843-.710937.226562-1.429687.371093-2.136719zm0 0" fill="#bddbff"/><path d="m5.90625 392.929688c-.3125.558593-.570312 1.148437-.867188 1.734374.296876-.585937.5625-1.175781.867188-1.734374zm0 0" fill="#bddbff"/><path d="m.160156 412.800781c.046875-.746093.089844-1.488281.167969-2.214843.097656-.867188.25-1.707032.382813-2.554688.121093-.710938.226562-1.429688.371093-2.136719.183594-.796875.414063-1.664062.648438-2.488281.175781-.679688.335937-1.359375.550781-2.015625.261719-.796875.582031-1.648437.894531-2.453125.242188-.625.457031-1.265625.722657-1.882812.34375-.796876.75-1.597657 1.140624-2.398438.296876-.585938.554688-1.175781.867188-1.734375.445312-.800781.941406-1.601563 1.429688-2.355469.320312-.511718.609374-1.03125.953124-1.527344.566407-.800781 1.207032-1.597656 1.832032-2.398437.304687-.394531.582031-.800781.894531-1.183594.96875-1.160156 1.992187-2.28125 3.066406-3.34375 8.957031-9.058593 21.179688-14.144531 33.917969-14.113281v-368c-26.507812 0-48 21.492188-48 48v368c0-.222656 0-.441406 0-.65625s0-.390625 0-.582031c0-.671875.121094-1.320313.160156-1.960938zm0 0" fill="#ddb200"/><path d="m48 0h336v368h-336zm0 0" fill="#ffcd00"/><g fill="#bddbff"><path d="m3.199219 398.921875c-.308594.796875-.628907 1.597656-.894531 2.453125.238281-.839844.558593-1.648438.894531-2.453125zm0 0"/><path d="m1.730469 403.390625c-.234375.800781-.464844 1.648437-.648438 2.488281.183594-.839844.414063-1.664062.648438-2.488281zm0 0"/><path d="m5.039062 394.664062c-.390624.800782-.796874 1.601563-1.140624 2.398438.34375-.832031.75-1.613281 1.140624-2.398438zm0 0"/><path d="m.710938 408c-.132813.847656-.285157 1.6875-.382813 2.550781.097656-.847656.25-1.6875.382813-2.550781zm0 0"/><path d="m0 414.761719v.582031c0-.863281.0742188-1.710938.128906-2.558594-.007812.65625-.128906 1.304688-.128906 1.976563zm0 0"/><path d="m7.335938 390.574219c-.488282.800781-.984376 1.546875-1.429688 2.355469.445312-.808594.941406-1.578126 1.429688-2.355469zm0 0"/><path d="m14.082031 382.078125c-1.074219 1.066406-2.097656 2.1875-3.066406 3.347656.984375-1.160156 1.992187-2.28125 3.066406-3.347656zm0 0"/><path d="m10.121094 386.609375c-.625.796875-1.265625 1.597656-1.832032 2.398437.566407-.800781 1.207032-1.601562 1.832032-2.398437zm0 0"/></g><path d="m296 184c0 44.183594-35.816406 80-80 80s-80-35.816406-80-80 35.816406-80 80-80 80 35.816406 80 80zm0 0" fill="#ab2300"/><path d="m192 144v80l64-40zm0 0" fill="#c6c5ca"/><path d="m371.90625 440c-7.214844-23.089844-3.660156-48.199219 9.679688-68.375l2.414062-3.625h-336c-12.734375-.039062-24.953125 5.035156-33.917969 14.078125-1.074219 1.066406-2.097656 2.1875-3.066406 3.347656-.3125.375-.589844.796875-.894531 1.183594-.625.796875-1.265625 1.597656-1.832032 2.398437-.34375.488282-.632812 1.015626-.953124 1.527344-.488282.800782-.984376 1.542969-1.429688 2.351563-.3125.5625-.570312 1.152343-.867188 1.738281-.390624.800781-.796874 1.597656-1.140624 2.398438-.265626.617187-.480469 1.257812-.722657 1.878906-.3125.800781-.632812 1.601562-.894531 2.457031-.214844.65625-.375 1.34375-.550781 2.015625-.226563.800781-.464844 1.648438-.648438 2.488281-.144531.703125-.25 1.425781-.371093 2.136719-.132813.847656-.285157 1.6875-.382813 2.550781-.078125.730469-.121094 1.472657-.167969 2.21875-.046875.742188-.113281 1.695313-.128906 2.558594.507812 27.179687 22.800781 48.886719 49.984375 48.671875h333.984375l-2.398438-3.625c-4.179687-6.296875-7.445312-13.160156-9.695312-20.375zm0 0" fill="#e0e0e2"/><path d="m192 424c-4.417969 0-8 3.582031-8 8s3.582031 8 8 8h179.90625c-1.609375-5.210938-2.683594-10.570312-3.203125-16zm0 0" fill="#c6c5ca"/><path d="m272 400c0 4.417969 3.582031 8 8 8h88.730469c.519531-5.429688 1.589843-10.789062 3.199219-16h-91.929688c-4.417969 0-8 3.582031-8 8zm0 0" fill="#c6c5ca"/></svg>